{
  "asset": {
    "generator": "Khronos glTF Blender I/O v5.1.19",
    "version": "2.0"
  },
  "scene": 0,
  "scenes": [
    {
      "extras": {
        "hyperscape": {
          "frames": [
            {
              "name": "world-euclidean",
              "parent": -1
            },
            {
              "name": "inversion-room",
              "parent": 0,
              "generators": [
                {
                  "kind": 0,
                  "offset": [
                    0.0,
                    0.0,
                    0.5
                  ]
                },
                {
                  "kind": 3,
                  "center": [
                    0.0,
                    0.0,
                    0.0
                  ],
                  "radius": 4.0
                }
              ]
            },
            {
              "name": "rotated-nested-frame",
              "parent": 1,
              "generators": [
                {
                  "kind": 1,
                  "quaternion_wxyz": [
                    0.9537169337272644,
                    0.0,
                    0.0,
                    0.30070579051971436
                  ]
                },
                {
                  "kind": 2,
                  "factor": 0.6499999761581421
                }
              ]
            }
          ],
          "walls": [
            {
              "name": "outer-room",
              "frame": 0,
              "geometry": 0,
              "center": [
                0.0,
                0.0,
                0.0
              ],
              "radius": 4.0
            },
            {
              "name": "overlapping-room",
              "frame": 0,
              "geometry": 0,
              "center": [
                2.5999999046325684,
                0.0,
                0.0
              ],
              "radius": 3.0
            },
            {
              "name": "nested-room",
              "frame": 1,
              "geometry": 0,
              "center": [
                0.0,
                0.0,
                0.0
              ],
              "radius": 1.399999976158142
            },
            {
              "name": "floor-halfspace",
              "frame": 0,
              "geometry": 1,
              "unit_normal": [
                0.0,
                0.0,
                1.0
              ],
              "offset": 0.0
            }
          ],
          "anchors": [
            {
              "name": "inside-out-room",
              "frame": 1,
              "flipped_walls": "0"
            },
            {
              "name": "reanchored-overlap",
              "frame": 2,
              "flipped_walls": "0,1"
            }
          ],
          "paths": [
            {
              "name": "euclidean-to-conformal-traverse",
              "subject": {
                "name": "HS_Traveler",
                "type": "Object"
              },
              "coordinate_frame": 0,
              "looping": 1,
              "keyframes": [
                {
                  "time_seconds": 0.0,
                  "point": [
                    -3.0,
                    1.2000000476837158,
                    0.5
                  ]
                },
                {
                  "time_seconds": 2.0,
                  "point": [
                    -1.2000000476837158,
                    1.2000000476837158,
                    0.800000011920929
                  ]
                },
                {
                  "time_seconds": 4.0,
                  "point": [
                    1.0,
                    1.2000000476837158,
                    0.5
                  ]
                },
                {
                  "time_seconds": 6.0,
                  "point": [
                    3.0,
                    1.2000000476837158,
                    0.699999988079071
                  ]
                },
                {
                  "time_seconds": 8.0,
                  "point": [
                    -3.0,
                    1.2000000476837158,
                    0.5
                  ]
                }
              ],
              "transitions": [
                {
                  "time_seconds": 2.0,
                  "frame": 1,
                  "anchor": 0
                },
                {
                  "time_seconds": 4.0,
                  "frame": 2,
                  "anchor": 1
                },
                {
                  "time_seconds": 6.0,
                  "frame": 0,
                  "anchor": -1
                }
              ]
            }
          ],
          "constraints": [
            {
              "kind": 0,
              "subject": {
                "name": "HS_ProjectionCamera",
                "type": "Object"
              },
              "target": {
                "name": "HS_Traveler",
                "type": "Object"
              },
              "local_offset": [
                0.0,
                0.0,
                0.4000000059604645
              ]
            },
            {
              "kind": 1,
              "subject": {
                "name": "HS_ProjectionCamera",
                "type": "Object"
              },
              "frame": 0
            }
          ],
          "active_frame": 1,
          "active_wall": 0,
          "active_anchor": 0,
          "active_path": 0,
          "active_constraint": 0,
          "preview_time": 0.0,
          "status": "Exported hyperscape-blender-demo.glb"
        }
      },
      "name": "Scene",
      "nodes": [
        0,
        1,
        2,
        3,
        4,
        5,
        6,
        7,
        8,
        9,
        10,
        11,
        12,
        13,
        14,
        15,
        16
      ]
    }
  ],
  "nodes": [
    {
      "extras": {},
      "mesh": 0,
      "name": "Cube"
    },
    {
      "camera": 0,
      "extras": {},
      "name": "Camera",
      "rotation": [
        -0.20997299253940582,
        0.3857799470424652,
        0.09062844514846802,
        0.8937962055206299
      ],
      "translation": [
        7.358891487121582,
        4.958309173583984,
        6.925790786743164
      ]
    },
    {
      "extras": {
        "hyperscape_demo": true,
        "hyperscape": {
          "frame": 0,
          "path": 0
        }
      },
      "mesh": 1,
      "name": "HS_Traveler",
      "translation": [
        -3,
        0.5,
        -1.2000000476837158
      ]
    },
    {
      "extras": {
        "hyperscape_demo": true,
        "hyperscape": {
          "frame": 2,
          "anchor": 1
        }
      },
      "mesh": 2,
      "name": "HS_NestedLandmark",
      "scale": [
        0.3499999940395355,
        0.800000011920929,
        0.3499999940395355
      ],
      "translation": [
        0.20000000298023224,
        0.4000000059604645,
        -1
      ]
    },
    {
      "extras": {
        "hyperscape_demo": true
      },
      "mesh": 3,
      "name": "HS_EuclideanLandmark",
      "scale": [
        0.6000000238418579,
        0.699999988079071,
        0.6000000238418579
      ],
      "translation": [
        -5,
        0.699999988079071,
        2
      ]
    },
    {
      "extras": {
        "hyperscape_demo": true
      },
      "mesh": 4,
      "name": "HS_Ground",
      "scale": [
        8,
        0.20000000298023224,
        8
      ],
      "translation": [
        0,
        -0.25,
        0
      ]
    },
    {
      "camera": 1,
      "extras": {
        "hyperscape_demo": true,
        "hyperscape": {
          "frame": 0
        }
      },
      "name": "HS_ProjectionCamera",
      "rotation": [
        -0.19936791062355042,
        0,
        0,
        0.979924738407135
      ],
      "translation": [
        0,
        5,
        10
      ]
    },
    {
      "extras": {
        "hyperscape_wall_index": 0,
        "hyperscape_guide": true
      },
      "mesh": 5,
      "name": "HS_Wall_0_outer-room",
      "scale": [
        4,
        4,
        4
      ]
    },
    {
      "extras": {
        "hyperscape_wall_index": 1,
        "hyperscape_guide": true
      },
      "mesh": 6,
      "name": "HS_Wall_1_overlapping-room",
      "scale": [
        3,
        3,
        3
      ],
      "translation": [
        2.5999999046325684,
        0,
        0
      ]
    },
    {
      "extras": {
        "hyperscape_wall_index": 2,
        "hyperscape_guide": true
      },
      "mesh": 7,
      "name": "HS_Wall_2_nested-room",
      "scale": [
        1.399999976158142,
        1.399999976158142,
        1.399999976158142
      ]
    },
    {
      "extras": {
        "hyperscape_wall_index": 3,
        "hyperscape_guide": true
      },
      "mesh": 8,
      "name": "HS_Wall_3_floor-halfspace",
      "rotation": [
        0,
        -1,
        0,
        4.371138828673793e-08
      ]
    },
    {
      "extras": {
        "hyperscape_guide": true,
        "hyperscape_path_index": 0
      },
      "name": "HS_Path_0_euclidean-to-conformal-traverse"
    },
    {
      "extras": {
        "hyperscape_guide": true,
        "hyperscape_path_index": 0,
        "hyperscape_key_index": 0
      },
      "name": "HS_Control_0_0",
      "translation": [
        -3,
        0.5,
        -1.2000000476837158
      ]
    },
    {
      "extras": {
        "hyperscape_guide": true,
        "hyperscape_path_index": 0,
        "hyperscape_key_index": 1
      },
      "name": "HS_Control_0_1",
      "translation": [
        -1.2000000476837158,
        0.800000011920929,
        -1.2000000476837158
      ]
    },
    {
      "extras": {
        "hyperscape_guide": true,
        "hyperscape_path_index": 0,
        "hyperscape_key_index": 2
      },
      "name": "HS_Control_0_2",
      "translation": [
        1,
        0.5,
        -1.2000000476837158
      ]
    },
    {
      "extras": {
        "hyperscape_guide": true,
        "hyperscape_path_index": 0,
        "hyperscape_key_index": 3
      },
      "name": "HS_Control_0_3",
      "translation": [
        3,
        0.699999988079071,
        -1.2000000476837158
      ]
    },
    {
      "extras": {
        "hyperscape_guide": true,
        "hyperscape_path_index": 0,
        "hyperscape_key_index": 4
      },
      "name": "HS_Control_0_4",
      "translation": [
        -3,
        0.5,
        -1.2000000476837158
      ]
    }
  ],
  "cameras": [
    {
      "name": "Camera",
      "perspective": {
        "aspectRatio": 1.7777777777777777,
        "yfov": 0.39959652046304894,
        "zfar": 100,
        "znear": 0.10000000149011612
      },
      "type": "perspective"
    },
    {
      "name": "HS_ProjectionCamera",
      "perspective": {
        "aspectRatio": 1.7777777777777777,
        "yfov": 0.39959652046304894,
        "zfar": 1000,
        "znear": 0.10000000149011612
      },
      "type": "perspective"
    }
  ],
  "materials": [
    {
      "doubleSided": true,
      "name": "Material",
      "pbrMetallicRoughness": {
        "baseColorFactor": [
          0.800000011920929,
          0.800000011920929,
          0.800000011920929,
          1
        ],
        "metallicFactor": 0,
        "roughnessFactor": 0.5
      }
    },
    {
      "doubleSided": true,
      "name": "HS Orange",
      "pbrMetallicRoughness": {
        "baseColorFactor": [
          0.800000011920929,
          0.800000011920929,
          0.800000011920929,
          1
        ],
        "metallicFactor": 0,
        "roughnessFactor": 0.5
      }
    },
    {
      "doubleSided": true,
      "name": "HS Green",
      "pbrMetallicRoughness": {
        "baseColorFactor": [
          0.800000011920929,
          0.800000011920929,
          0.800000011920929,
          1
        ],
        "metallicFactor": 0,
        "roughnessFactor": 0.5
      }
    },
    {
      "doubleSided": true,
      "name": "HS Blue",
      "pbrMetallicRoughness": {
        "baseColorFactor": [
          0.800000011920929,
          0.800000011920929,
          0.800000011920929,
          1
        ],
        "metallicFactor": 0,
        "roughnessFactor": 0.5
      }
    },
    {
      "doubleSided": true,
      "name": "HS Ground",
      "pbrMetallicRoughness": {
        "baseColorFactor": [
          0.800000011920929,
          0.800000011920929,
          0.800000011920929,
          1
        ],
        "metallicFactor": 0,
        "roughnessFactor": 0.5
      }
    }
  ],
  "meshes": [
    {
      "name": "Cube",
      "primitives": [
        {
          "attributes": {
            "POSITION": 0,
            "NORMAL": 1,
            "TEXCOORD_0": 2
          },
          "indices": 3,
          "material": 0
        }
      ]
    },
    {
      "name": "Icosphere",
      "primitives": [
        {
          "attributes": {
            "POSITION": 4,
            "NORMAL": 5,
            "TEXCOORD_0": 6
          },
          "indices": 7,
          "material": 1
        }
      ]
    },
    {
      "name": "Cube.001",
      "primitives": [
        {
          "attributes": {
            "POSITION": 8,
            "NORMAL": 9,
            "TEXCOORD_0": 10
          },
          "indices": 11,
          "material": 2
        }
      ]
    },
    {
      "name": "Cube.002",
      "primitives": [
        {
          "attributes": {
            "POSITION": 12,
            "NORMAL": 13,
            "TEXCOORD_0": 14
          },
          "indices": 11,
          "material": 3
        }
      ]
    },
    {
      "name": "Cube.003",
      "primitives": [
        {
          "attributes": {
            "POSITION": 15,
            "NORMAL": 16,
            "TEXCOORD_0": 17
          },
          "indices": 11,
          "material": 4
        }
      ]
    },
    {
      "name": "Sphere",
      "primitives": [
        {
          "attributes": {
            "POSITION": 18,
            "NORMAL": 19,
            "TEXCOORD_0": 20
          },
          "indices": 21
        }
      ]
    },
    {
      "name": "Sphere.001",
      "primitives": [
        {
          "attributes": {
            "POSITION": 22,
            "NORMAL": 23,
            "TEXCOORD_0": 24
          },
          "indices": 25
        }
      ]
    },
    {
      "name": "Sphere.002",
      "primitives": [
        {
          "attributes": {
            "POSITION": 26,
            "NORMAL": 27,
            "TEXCOORD_0": 28
          },
          "indices": 29
        }
      ]
    },
    {
      "name": "Grid",
      "primitives": [
        {
          "attributes": {
            "POSITION": 30,
            "NORMAL": 31,
            "TEXCOORD_0": 32
          },
          "indices": 33
        }
      ]
    }
  ],
  "accessors": [
    {
      "bufferView": 0,
      "componentType": 5126,
      "count": 24,
      "max": [
        1,
        1,
        1
      ],
      "min": [
        -1,
        -1,
        -1
      ],
      "type": "VEC3"
    },
    {
      "bufferView": 1,
      "componentType": 5126,
      "count": 24,
      "type": "VEC3"
    },
    {
      "bufferView": 2,
      "componentType": 5126,
      "count": 24,
      "type": "VEC2"
    },
    {
      "bufferView": 3,
      "componentType": 5123,
      "count": 36,
      "type": "SCALAR"
    },
    {
      "bufferView": 4,
      "componentType": 5126,
      "count": 960,
      "max": [
        0.44999998807907104,
        0.44999998807907104,
        0.44999998807907104
      ],
      "min": [
        -0.44999998807907104,
        -0.44999998807907104,
        -0.44999998807907104
      ],
      "type": "VEC3"
    },
    {
      "bufferView": 5,
      "componentType": 5126,
      "count": 960,
      "type": "VEC3"
    },
    {
      "bufferView": 6,
      "componentType": 5126,
      "count": 960,
      "type": "VEC2"
    },
    {
      "bufferView": 7,
      "componentType": 5123,
      "count": 960,
      "type": "SCALAR"
    },
    {
      "bufferView": 8,
      "componentType": 5126,
      "count": 24,
      "max": [
        1,
        1,
        1
      ],
      "min": [
        -1,
        -1,
        -1
      ],
      "type": "VEC3"
    },
    {
      "bufferView": 9,
      "componentType": 5126,
      "count": 24,
      "type": "VEC3"
    },
    {
      "bufferView": 10,
      "componentType": 5126,
      "count": 24,
      "type": "VEC2"
    },
    {
      "bufferView": 11,
      "componentType": 5123,
      "count": 36,
      "type": "SCALAR"
    },
    {
      "bufferView": 12,
      "componentType": 5126,
      "count": 24,
      "max": [
        1,
        1,
        1
      ],
      "min": [
        -1,
        -1,
        -1
      ],
      "type": "VEC3"
    },
    {
      "bufferView": 13,
      "componentType": 5126,
      "count": 24,
      "type": "VEC3"
    },
    {
      "bufferView": 14,
      "componentType": 5126,
      "count": 24,
      "type": "VEC2"
    },
    {
      "bufferView": 15,
      "componentType": 5126,
      "count": 24,
      "max": [
        1,
        1,
        1
      ],
      "min": [
        -1,
        -1,
        -1
      ],
      "type": "VEC3"
    },
    {
      "bufferView": 16,
      "componentType": 5126,
      "count": 24,
      "type": "VEC3"
    },
    {
      "bufferView": 17,
      "componentType": 5126,
      "count": 24,
      "type": "VEC2"
    },
    {
      "bufferView": 18,
      "componentType": 5126,
      "count": 1984,
      "max": [
        0.9999997019767761,
        1,
        0.9999993443489075
      ],
      "min": [
        -0.9999990463256836,
        -1,
        -1
      ],
      "type": "VEC3"
    },
    {
      "bufferView": 19,
      "componentType": 5126,
      "count": 1984,
      "type": "VEC3"
    },
    {
      "bufferView": 20,
      "componentType": 5126,
      "count": 1984,
      "type": "VEC2"
    },
    {
      "bufferView": 21,
      "componentType": 5123,
      "count": 2880,
      "type": "SCALAR"
    },
    {
      "bufferView": 22,
      "componentType": 5126,
      "count": 1984,
      "max": [
        0.9999997019767761,
        1,
        0.9999993443489075
      ],
      "min": [
        -0.9999990463256836,
        -1,
        -1
      ],
      "type": "VEC3"
    },
    {
      "bufferView": 23,
      "componentType": 5126,
      "count": 1984,
      "type": "VEC3"
    },
    {
      "bufferView": 24,
      "componentType": 5126,
      "count": 1984,
      "type": "VEC2"
    },
    {
      "bufferView": 25,
      "componentType": 5123,
      "count": 2880,
      "type": "SCALAR"
    },
    {
      "bufferView": 26,
      "componentType": 5126,
      "count": 1984,
      "max": [
        0.9999997019767761,
        1,
        0.9999993443489075
      ],
      "min": [
        -0.9999990463256836,
        -1,
        -1
      ],
      "type": "VEC3"
    },
    {
      "bufferView": 27,
      "componentType": 5126,
      "count": 1984,
      "type": "VEC3"
    },
    {
      "bufferView": 28,
      "componentType": 5126,
      "count": 1984,
      "type": "VEC2"
    },
    {
      "bufferView": 29,
      "componentType": 5123,
      "count": 2880,
      "type": "SCALAR"
    },
    {
      "bufferView": 30,
      "componentType": 5126,
      "count": 25,
      "max": [
        2,
        0,
        2
      ],
      "min": [
        -2,
        0,
        -2
      ],
      "type": "VEC3"
    },
    {
      "bufferView": 31,
      "componentType": 5126,
      "count": 25,
      "type": "VEC3"
    },
    {
      "bufferView": 32,
      "componentType": 5126,
      "count": 25,
      "type": "VEC2"
    },
    {
      "bufferView": 33,
      "componentType": 5123,
      "count": 96,
      "type": "SCALAR"
    }
  ],
  "bufferViews": [
    {
      "buffer": 0,
      "byteLength": 288,
      "byteOffset": 0,
      "target": 34962
    },
    {
      "buffer": 0,
      "byteLength": 288,
      "byteOffset": 288,
      "target": 34962
    },
    {
      "buffer": 0,
      "byteLength": 192,
      "byteOffset": 576,
      "target": 34962
    },
    {
      "buffer": 0,
      "byteLength": 72,
      "byteOffset": 768,
      "target": 34963
    },
    {
      "buffer": 0,
      "byteLength": 11520,
      "byteOffset": 840,
      "target": 34962
    },
    {
      "buffer": 0,
      "byteLength": 11520,
      "byteOffset": 12360,
      "target": 34962
    },
    {
      "buffer": 0,
      "byteLength": 7680,
      "byteOffset": 23880,
      "target": 34962
    },
    {
      "buffer": 0,
      "byteLength": 1920,
      "byteOffset": 31560,
      "target": 34963
    },
    {
      "buffer": 0,
      "byteLength": 288,
      "byteOffset": 33480,
      "target": 34962
    },
    {
      "buffer": 0,
      "byteLength": 288,
      "byteOffset": 33768,
      "target": 34962
    },
    {
      "buffer": 0,
      "byteLength": 192,
      "byteOffset": 34056,
      "target": 34962
    },
    {
      "buffer": 0,
      "byteLength": 72,
      "byteOffset": 34248,
      "target": 34963
    },
    {
      "buffer": 0,
      "byteLength": 288,
      "byteOffset": 34320,
      "target": 34962
    },
    {
      "buffer": 0,
      "byteLength": 288,
      "byteOffset": 34608,
      "target": 34962
    },
    {
      "buffer": 0,
      "byteLength": 192,
      "byteOffset": 34896,
      "target": 34962
    },
    {
      "buffer": 0,
      "byteLength": 288,
      "byteOffset": 35088,
      "target": 34962
    },
    {
      "buffer": 0,
      "byteLength": 288,
      "byteOffset": 35376,
      "target": 34962
    },
    {
      "buffer": 0,
      "byteLength": 192,
      "byteOffset": 35664,
      "target": 34962
    },
    {
      "buffer": 0,
      "byteLength": 23808,
      "byteOffset": 35856,
      "target": 34962
    },
    {
      "buffer": 0,
      "byteLength": 23808,
      "byteOffset": 59664,
      "target": 34962
    },
    {
      "buffer": 0,
      "byteLength": 15872,
      "byteOffset": 83472,
      "target": 34962
    },
    {
      "buffer": 0,
      "byteLength": 5760,
      "byteOffset": 99344,
      "target": 34963
    },
    {
      "buffer": 0,
      "byteLength": 23808,
      "byteOffset": 105104,
      "target": 34962
    },
    {
      "buffer": 0,
      "byteLength": 23808,
      "byteOffset": 128912,
      "target": 34962
    },
    {
      "buffer": 0,
      "byteLength": 15872,
      "byteOffset": 152720,
      "target": 34962
    },
    {
      "buffer": 0,
      "byteLength": 5760,
      "byteOffset": 168592,
      "target": 34963
    },
    {
      "buffer": 0,
      "byteLength": 23808,
      "byteOffset": 174352,
      "target": 34962
    },
    {
      "buffer": 0,
      "byteLength": 23808,
      "byteOffset": 198160,
      "target": 34962
    },
    {
      "buffer": 0,
      "byteLength": 15872,
      "byteOffset": 221968,
      "target": 34962
    },
    {
      "buffer": 0,
      "byteLength": 5760,
      "byteOffset": 237840,
      "target": 34963
    },
    {
      "buffer": 0,
      "byteLength": 300,
      "byteOffset": 243600,
      "target": 34962
    },
    {
      "buffer": 0,
      "byteLength": 300,
      "byteOffset": 243900,
      "target": 34962
    },
    {
      "buffer": 0,
      "byteLength": 200,
      "byteOffset": 244200,
      "target": 34962
    },
    {
      "buffer": 0,
      "byteLength": 192,
      "byteOffset": 244400,
      "target": 34963
    }
  ],
  "buffers": [
    {
      "byteLength": 244592,
      "uri": "hyperscape-blender-demo.bin"
    }
  ],
  "extras": {
    "hyperscape": {
      "version": "0.1",
      "frames": [
        {
          "name": "world-euclidean",
          "parent": null,
          "generators": []
        },
        {
          "name": "inversion-room",
          "parent": 0,
          "generators": [
            {
              "type": "translation",
              "offset": [
                0.0,
                0.0,
                0.5
              ]
            },
            {
              "type": "sphere_reflection",
              "center": [
                0.0,
                0.0,
                0.0
              ],
              "radius": 4.0
            }
          ]
        },
        {
          "name": "rotated-nested-frame",
          "parent": 1,
          "generators": [
            {
              "type": "rotation",
              "quaternion_wxyz": [
                0.9537169337272644,
                0.0,
                0.0,
                0.30070579051971436
              ]
            },
            {
              "type": "uniform_scale",
              "factor": 0.6499999761581421
            }
          ]
        }
      ],
      "walls": [
        {
          "name": "outer-room",
          "frame": 0,
          "geometry": {
            "type": "sphere",
            "center": [
              0.0,
              0.0,
              0.0
            ],
            "radius": 4.0
          }
        },
        {
          "name": "overlapping-room",
          "frame": 0,
          "geometry": {
            "type": "sphere",
            "center": [
              2.5999999046325684,
              0.0,
              0.0
            ],
            "radius": 3.0
          }
        },
        {
          "name": "nested-room",
          "frame": 1,
          "geometry": {
            "type": "sphere",
            "center": [
              0.0,
              0.0,
              0.0
            ],
            "radius": 1.399999976158142
          }
        },
        {
          "name": "floor-halfspace",
          "frame": 0,
          "geometry": {
            "type": "plane",
            "unit_normal": [
              0.0,
              0.0,
              1.0
            ],
            "offset": 0.0
          }
        }
      ],
      "anchors": [
        {
          "name": "inside-out-room",
          "frame": 1,
          "flipped_walls": [
            0
          ]
        },
        {
          "name": "reanchored-overlap",
          "frame": 2,
          "flipped_walls": [
            0,
            1
          ]
        }
      ],
      "paths": [
        {
          "name": "euclidean-to-conformal-traverse",
          "node": 2,
          "looping": true,
          "keyframes": [
            {
              "time_seconds": 0.0,
              "point": [
                -3.0,
                1.2000000476837158,
                0.5
              ]
            },
            {
              "time_seconds": 2.0,
              "point": [
                -1.2000000476837158,
                1.2000000476837158,
                0.800000011920929
              ]
            },
            {
              "time_seconds": 4.0,
              "point": [
                1.0,
                1.2000000476837158,
                0.5
              ]
            },
            {
              "time_seconds": 6.0,
              "point": [
                3.0,
                1.2000000476837158,
                0.699999988079071
              ]
            },
            {
              "time_seconds": 8.0,
              "point": [
                -3.0,
                1.2000000476837158,
                0.5
              ]
            }
          ],
          "transitions": [
            {
              "time_seconds": 2.0,
              "frame": 1,
              "anchor": 0
            },
            {
              "time_seconds": 4.0,
              "frame": 2,
              "anchor": 1
            },
            {
              "time_seconds": 6.0,
              "frame": 0
            }
          ],
          "coordinate_frame": 0
        }
      ],
      "constraints": [
        {
          "type": "track",
          "node": 6,
          "target_node": 2,
          "local_offset": [
            0.0,
            0.0,
            0.4000000059604645
          ]
        },
        {
          "type": "projection_camera",
          "node": 6,
          "frame": 0
        }
      ]
    }
  }
}
